# xmcd CD database file
#
# Track frame offsets:
#	150
#	21397
#	37062
#	53945
#	64855
#	85627
#	103580
#
# Disc length: 1675 seconds
#
# Revision: 0
# Processed by: cddbd v1.5PL3 Copyright (c) Steve Scherf et al.
# Submitted via: CDex 1.51
#
DISCID=59068907
DTITLE=マリコスミス - ロンドンブリッジ
DYEAR=2004
DGENRE=JPop
TTITLE0=知るときがきたから
TTITLE1=冬の空
TTITLE2=ハル
TTITLE3=恋のはじめ
TTITLE4=Rain On Me -why does it always rain on me?-
TTITLE5=おひなさま
TTITLE6=I need YOUR help
EXTD=YEAR: 2004.03.03
EXTT0=
EXTT1=
EXTT2=
EXTT3=
EXTT4=
EXTT5=
EXTT6=
PLAYORDER=
